<svg xmlns="http://www.w3.org/2000/svg" style="display: none;">

    <symbol id="icon-account-group" viewBox="0 0 512 512">
      <path d="m256 301l0-41c7-7 19-24 21-60 10-5 16-16 16-30 0-12-4-22-12-28 7-13 18-37 12-60-7-28-48-39-81-39-29 0-65 8-77 30-12-1-20 2-26 9-15 16-8 46-4 62 1 2 2 4 2 5l0 42c0 41 24 63 42 71l0 39c-8 3-17 7-26 10-56 20-104 37-112 64-11 31-11 102-11 105 0 6 5 11 11 11l384 0c6 0 10-5 10-11 0-3 0-74-10-105-11-31-69-48-139-74z m-235 168c1-20 3-66 10-88 5-16 57-35 99-50 12-4 23-8 34-12 4-2 7-6 7-10l0-54c0-4-3-9-8-10-1 0-35-12-35-54l0-42c0-3-1-5-2-11-2-8-9-34-2-41 3-4 11-3 15-2 6 1 11-2 13-8 3-13 29-22 60-22 31 0 57 9 60 22 5 17-6 37-11 48-3 6-5 10-5 14 0 5 5 10 11 10 3 0 5 6 5 11 0 4-2 11-5 11-6 0-11 4-11 10 0 43-16 55-16 55-3 2-5 6-5 9l0 54c0 4 2 8 7 10 51 19 125 41 132 62 8 22 9 68 10 88l-363 0z m480-94c-8-25-49-51-138-84l0-20c7-7 19-25 21-61 4-2 7-5 10-9 4-5 6-13 6-20 0-13-5-23-13-28 7-15 19-41 13-64-4-15-21-31-40-39-19-7-38-6-54 5-5 3-6 10-3 15 3 4 10 6 15 3 12-9 25-6 34-3 15 6 25 18 27 24 4 17-6 40-12 52-3 6-4 10-4 13 0 3 1 6 3 8 2 2 4 3 7 3 4 0 6 6 6 11 0 3-1 6-3 8-1 2-2 2-3 2-6 0-10 5-10 11 0 43-17 55-17 55-3 2-5 5-5 9l0 32c0 4 3 8 7 10 83 31 127 56 133 73 7 22 9 68 10 88l-43 0c-6 0-11 5-11 11 0 6 5 11 11 11l53 0c6 0 11-5 11-11 0-3 0-74-11-105z"/>
    </symbol>

    <symbol id="icon-arrow-down" viewBox="0 0 512 512">
      <path d="m508 109c-4-4-11-3-15 1l-237 269-237-269c-4-4-11-5-15-1-5 4-5 11-1 15l245 278c2 2 5 3 8 3 3 0 6-1 8-3l245-278c4-4 4-11-1-15z"/>
    </symbol>

    <symbol id="icon-arrow-left" viewBox="0 0 512 512">
      <path d="m133 256l269-237c4-4 5-11 1-15-4-5-11-5-15-1l-278 245c-2 2-3 5-3 8 0 3 1 6 3 8l278 245c2 2 4 3 7 3 3 0 6-1 8-4 4-4 3-11-1-15z"/>
    </symbol>

    <symbol id="icon-arrow-right" viewBox="0 0 512 512">
      <path d="m402 248l-278-245c-4-4-11-4-15 1-4 4-3 11 1 15l269 237-269 237c-4 4-5 11-1 15 2 3 5 4 8 4 3 0 5-1 7-3l278-245c2-2 3-5 3-8 0-3-1-6-3-8z"/>
    </symbol>
    <!-- <symbol id="icon-feeds-off" viewBox="0 0 24 24">
      <path d="M11.5,22 L10.5,22 C10.5,15.7 15.7,10.5 22,10.5 L22,11.5 C16.2,11.5 11.5,16.2 11.5,22 Z M14.5,22 L15.5,22 C15.5,18.4 18.4,15.5 22,15.5 L22,14.5 C17.9,14.5 14.5,17.9 14.5,22 Z M19,22 L21,22 C21.6,22 22,21.6 22,21 L22,19 C20.3,19 19,20.3 19,22 Z M13.4,2 L12.4,2 C12.4,7.7 7.7,12.4 2,12.4 L2,13.4 C8.3,13.4 13.4,8.3 13.4,2 Z M9.4,2 L8.4,2 C8.4,5.5 5.5,8.4 2,8.4 L2,9.4 C6.1,9.4 9.4,6.1 9.4,2 Z M4.9,2 L3,2 C2.4,2 2,2.4 2,3 L2,4.9 C3.6,4.9 4.9,3.6 4.9,2 Z" id="Shape"></path>
    </symbol> -->
<svg width="24" height="24" viewBox="0 0 24 24" fill="none" xmlns="http://www.w3.org/2000/svg">
<g id="systemicons/top-bar/new_story">
<path id="new_story" d="M12.5 2C12.2239 2 12 2.22386 12 2.5V11H3.5C3.22386 11 3 11.2239 3 11.5C3 11.7761 3.22386 12 3.5 12H12V20.5C12 20.7761 12.2239 21 12.5 21C12.7761 21 13 20.7761 13 20.5V12H21.5C21.7761 12 22 11.7761 22 11.5C22 11.2239 21.7761 11 21.5 11H13V2.5C13 2.22386 12.7761 2 12.5 2Z" fill="white" fill-opacity="0.54"/>
</g>
</svg>
<svg width="24" height="24" viewBox="0 0 24 24" fill="none" xmlns="http://www.w3.org/2000/svg">
<g id="systemicons/close_small">
<path id="close_small" d="M16.8563 7.14368C16.6647 6.95211 16.3541 6.95211 16.1626 7.14368L12 11.3062L7.83744 7.14368C7.64587 6.95211 7.33526 6.95211 7.14368 7.14368C6.95211 7.33526 6.95211 7.64587 7.14368 7.83744L11.3062 12L7.14368 16.1626C6.95211 16.3541 6.95211 16.6647 7.14368 16.8563C7.33526 17.0479 7.64587 17.0479 7.83744 16.8563L12 12.6938L16.1626 16.8563C16.3541 17.0479 16.6647 17.0479 16.8563 16.8563C17.0479 16.6647 17.0479 16.3541 16.8563 16.1626L12.6938 12L16.8563 7.83744C17.0479 7.64587 17.0479 7.33526 16.8563 7.14368Z" fill="white" fill-opacity="0.54"/>
</g>
</svg>
    
<svg width="24" height="24" viewBox="0 0 24 24" fill="none" xmlns="http://www.w3.org/2000/svg">
<g id="systemicons/top-bar/home_on">
<path id="home_on" fill-rule="evenodd" clip-rule="evenodd" d="M2 11.0002V22.5002C2 22.7762 2.224 23.0002 2.5 23.0002H8.643C8.919 23.0002 9.143 22.7762 9.143 22.5002V14.4292H14.857V22.5002C14.857 22.7762 15.081 23.0002 15.357 23.0002H21.5C21.776 23.0002 22 22.7762 22 22.5002V11.0002C22 10.8682 21.947 10.7402 21.854 10.6462L12.354 1.14625C12.158 0.95125 11.842 0.95125 11.646 1.14625L2.146 10.6462C2.053 10.7402 2 10.8682 2 11.0002Z" fill="#3997FF"/>
</g>
</svg>
<svg width="24" height="24" viewBox="0 0 24 24" fill="none" xmlns="http://www.w3.org/2000/svg">
<g id="systemicons/top-bar/home_off">
<path id="home_off" fill-rule="evenodd" clip-rule="evenodd" d="M12 1C12.128 1 12.256 1.049 12.354 1.146L21.854 10.646C21.947 10.74 22 10.868 22 11V22.5C22 22.776 21.776 23 21.5 23H15.357C15.081 23 14.857 22.776 14.857 22.5V14.429H9.143V22.5C9.143 22.776 8.919 23 8.643 23H2.5C2.224 23 2 22.776 2 22.5V11C2 10.868 2.053 10.74 2.146 10.646L11.646 1.146C11.744 1.049 11.872 1 12 1ZM12 2.207L3 11.207V22H8.143V13.429H15.857V22H21V11.207L12 2.207Z" fill="white" fill-opacity="0.54"/>
</g>
</svg>
<svg width="24" height="24" viewBox="0 0 24 24" fill="none" xmlns="http://www.w3.org/2000/svg">
<g id="systemicons/top-bar/feeds_on">
<path id="feeds_on" fill-rule="evenodd" clip-rule="evenodd" d="M12 22H10C10 15.4 15.4 10 22 10V12C16.5 12 12 16.5 12 22ZM14 22H16C16 18.7 18.7 16 22 16V14C17.6 14 14 17.6 14 22ZM18 22H21C21.6 22 22 21.6 22 21V18C19.8 18 18 19.8 18 22ZM13.9 2H11.9C11.9 7.5 7.4 11.9 2 11.9V13.9C8.6 13.9 13.9 8.6 13.9 2ZM9.9 2H7.9C7.9 5.3 5.2 7.9 2 7.9V9.9C6.4 9.9 9.9 6.4 9.9 2ZM5.9 2H3C2.4 2 2 2.4 2 3V5.9C4.2 5.9 5.9 4.2 5.9 2Z" fill="#3997FF"/>
</g>
</svg>
<svg width="24" height="24" viewBox="0 0 24 24" fill="none" xmlns="http://www.w3.org/2000/svg">
<g id="systemicons/top-bar/feeds_off">
<path id="feeds_off" fill-rule="evenodd" clip-rule="evenodd" d="M11.5 22H10.5C10.5 15.7 15.7 10.5 22 10.5V11.5C16.2 11.5 11.5 16.2 11.5 22ZM14.5 22H15.5C15.5 18.4 18.4 15.5 22 15.5V14.5C17.9 14.5 14.5 17.9 14.5 22ZM19 22H21C21.6 22 22 21.6 22 21V19C20.3 19 19 20.3 19 22ZM13.4 2H12.4C12.4 7.7 7.7 12.4 2 12.4V13.4C8.3 13.4 13.4 8.3 13.4 2ZM9.4 2H8.4C8.4 5.5 5.5 8.4 2 8.4V9.4C6.1 9.4 9.4 6.1 9.4 2ZM4.9 2H3C2.4 2 2 2.4 2 3V4.9C3.6 4.9 4.9 3.6 4.9 2Z" fill="white" fill-opacity="0.54"/>
</g>
</svg>



<svg width="24" height="24" viewBox="0 0 24 24" fill="none" xmlns="http://www.w3.org/2000/svg">
<g id="systemicons/top-bar/marketplace_on">
<path id="marketplace_on" fill-rule="evenodd" clip-rule="evenodd" d="M19.076 3H4.924C4.478 3 4.087 3.294 3.963 3.722L2 10.5C2 11.881 3.119 13 4.5 13C5.881 13 7 11.881 7 10.5C7 11.881 8.119 13 9.5 13C10.881 13 12 11.881 12 10.5C12 11.881 13.119 13 14.5 13C15.881 13 17 11.881 17 10.5C17 11.881 18.119 13 19.5 13C20.881 13 22 11.881 22 10.5L20.037 3.722C19.913 3.294 19.521 3 19.076 3ZM20 13.949V20C20 20.552 19.553 21 19 21H5C4.447 21 4 20.552 4 20V13.949C4.165 13.973 4.329 14 4.5 14C5.449 14 6.306 13.615 6.937 13H7.062C7.694 13.615 8.551 14 9.5 14C10.449 14 11.306 13.615 11.937 13H12.062C12.694 13.615 13.551 14 14.5 14C15.449 14 16.306 13.615 16.937 13H17.062C17.694 13.615 18.551 14 19.5 14C19.671 14 19.835 13.973 20 13.949Z" fill="#3997FF"/>
</g>
</svg>
<svg width="24" height="24" viewBox="0 0 24 24" fill="none" xmlns="http://www.w3.org/2000/svg">
<g id="systemicons/top-bar/plans_on">
<path id="plans_on" fill-rule="evenodd" clip-rule="evenodd" d="M6 2C6 1.4477 6.4478 1 7 1C7.5522 1 8 1.4477 8 2V5C8 5.5523 7.5522 6 7 6C6.4478 6 6 5.5523 6 5V2ZM2 6C2 4.8954 2.8954 4 4 4H5V5C5 6.1046 5.8954 7 7 7C8.1046 7 9 6.1046 9 5V4H15V5C15 6.1046 15.8954 7 17 7C18.1046 7 19 6.1046 19 5V4H20C21.1046 4 22 4.8954 22 6V8H2V6ZM2 9V21C2 22.1046 2.8954 23 4 23H20C21.1046 23 22 22.1046 22 21V9H2ZM13 14H18V19H13V14ZM17 1C16.4478 1 16 1.4477 16 2V5C16 5.5523 16.4478 6 17 6C17.5522 6 18 5.5523 18 5V2C18 1.4477 17.5522 1 17 1Z" fill="#3997FF"/>
</g>
</svg>
<svg width="24" height="24" viewBox="0 0 24 24" fill="none" xmlns="http://www.w3.org/2000/svg">
<g id="systemicons/top-bar/plans_off">
<path id="plans_off" fill-rule="evenodd" clip-rule="evenodd" d="M6 2C6 1.4477 6.4478 1 7 1C7.5522 1 8 1.4477 8 2V5C8 5.5523 7.5522 6 7 6C6.4478 6 6 5.5523 6 5V2ZM2 6C2 4.8954 2.8954 4 4 4H5V5C5 6.1046 5.8954 7 7 7C8.1046 7 9 6.1046 9 5V4H15V5C15 6.1046 15.8954 7 17 7C18.1046 7 19 6.1046 19 5V4H20C21.1046 4 22 4.8954 22 6V21C22 22.1046 21.1046 23 20 23H4C2.8954 23 2 22.1046 2 21V6ZM3 9H21V21C21 21.5523 20.5522 22 20 22H4C3.4478 22 3 21.5523 3 21V9ZM18 14H13V19H18V14ZM17 1C16.4478 1 16 1.4477 16 2V5C16 5.5523 16.4478 6 17 6C17.5522 6 18 5.5523 18 5V2C18 1.4477 17.5522 1 17 1Z" fill="white" fill-opacity="0.54"/>
</g>
</svg>


<svg width="24" height="24" viewBox="0 0 24 24" fill="none" xmlns="http://www.w3.org/2000/svg">
<g id="systemicons/top-bar/marketplace_off">
<path id="marketplace_off" fill-rule="evenodd" clip-rule="evenodd" d="M20 13.9492V19.8272C20 20.4752 19.475 21.0002 18.827 21.0002H5.173C4.525 21.0002 4 20.4752 4 19.8272V13.9492C4.165 13.9732 4.329 14.0002 4.5 14.0002C4.671 14.0002 4.835 13.9722 5 13.9492V19.8272C5 19.9222 5.077 20.0002 5.173 20.0002H18.827C18.923 20.0002 19 19.9222 19 19.8272V13.9492C19.165 13.9722 19.329 14.0002 19.5 14.0002C19.671 14.0002 19.835 13.9732 20 13.9492ZM20.037 3.722L22 10.5C22 11.881 20.881 13 19.5 13C18.119 13 17 11.881 17 10.5C17 11.881 15.881 13 14.5 13C13.119 13 12 11.881 12 10.5C12 11.881 10.881 13 9.5 13C8.119 13 7 11.881 7 10.5C7 11.881 5.881 13 4.5 13C3.119 13 2 11.881 2 10.5L3.963 3.722C4.087 3.294 4.479 3 4.924 3H19.076C19.521 3 19.913 3.294 20.037 3.722ZM19.5 12C20.285 12 20.932 11.394 20.995 10.624L19.076 4H4.924L3.005 10.624C3.068 11.394 3.715 12 4.5 12C5.327 12 6 11.327 6 10.5C6 9.948 6.447 9.5 7 9.5C7.553 9.5 8 9.948 8 10.5C8 11.327 8.673 12 9.5 12C10.327 12 11 11.327 11 10.5C11 9.948 11.447 9.5 12 9.5C12.553 9.5 13 9.948 13 10.5C13 11.327 13.673 12 14.5 12C15.327 12 16 11.327 16 10.5C16 9.948 16.447 9.5 17 9.5C17.553 9.5 18 9.948 18 10.5C18 11.327 18.673 12 19.5 12Z" fill="white" fill-opacity="0.54"/>
</g>
</svg>




<svg xmlns="http://www.w3.org/2000/svg" xmlns:xlink="http://www.w3.org/1999/xlink" width="24" height="24" viewBox="0 0 24 24">
<svg width="24" height="24" viewBox="0 0 24 24" fill="none" xmlns="http://www.w3.org/2000/svg">
<g id="systemicons/story/story_cluster_on">
<path id="story_cluster_on" fill-rule="evenodd" clip-rule="evenodd" d="M19.2822 15.8688C18.3942 15.3438 17.2572 15.4138 16.4372 16.0838L13.9282 13.5748C14.2292 13.2048 14.4242 12.7508 14.4742 12.2498H18.0252C18.1322 13.3048 18.8872 14.1598 19.8872 14.4148C19.7322 14.9218 19.5272 15.4078 19.2822 15.8688ZM14.4142 19.8878C14.1592 18.8878 13.3042 18.1318 12.2502 18.0258V14.4748C12.7512 14.4248 13.2052 14.2298 13.5742 13.9278L16.0842 16.4378C15.4142 17.2568 15.3442 18.3948 15.8692 19.2818C15.4082 19.5278 14.9222 19.7318 14.4142 19.8878ZM8.13121 19.2818C8.65621 18.3948 8.58621 17.2568 7.91621 16.4378L10.4262 13.9278C10.7952 14.2298 11.2492 14.4248 11.7502 14.4748V18.0258C10.6952 18.1318 9.84121 18.8878 9.58621 19.8878C9.07821 19.7318 8.59221 19.5278 8.13121 19.2818ZM4.11221 14.4148C5.11221 14.1598 5.86821 13.3048 5.97421 12.2498H9.52521C9.57621 12.7508 9.77021 13.2048 10.0722 13.5748L7.56221 16.0838C6.74321 15.4138 5.60521 15.3438 4.71821 15.8688C4.47221 15.4078 4.26721 14.9218 4.11221 14.4148ZM4.71821 8.13176C5.60521 8.65676 6.74321 8.58576 7.56221 7.91676L10.0722 10.4258C9.77021 10.7958 9.57621 11.2488 9.52521 11.7498H5.97421C5.86821 10.6958 5.11221 9.84076 4.11221 9.58576C4.26721 9.07775 4.47221 8.59276 4.71821 8.13176ZM9.58621 4.11276C9.84121 5.11276 10.6952 5.86876 11.7502 5.97476V9.52576C11.2492 9.57576 10.7952 9.77076 10.4262 10.0728L7.91621 7.56276C8.58621 6.74376 8.65621 5.60576 8.13121 4.71876C8.59221 4.47276 9.07821 4.26776 9.58621 4.11276ZM15.8692 4.71876C15.3442 5.60576 15.4142 6.74376 16.0842 7.56276L13.5742 10.0728C13.2052 9.77076 12.7512 9.57576 12.2502 9.52576V5.97476C13.3042 5.86876 14.1592 5.11276 14.4142 4.11276C14.9222 4.26776 15.4082 4.47276 15.8692 4.71876ZM19.8872 9.58576C18.8872 9.84076 18.1322 10.6958 18.0252 11.7498H14.4742C14.4242 11.2488 14.2292 10.7958 13.9282 10.4258L16.4372 7.91676C17.2572 8.58576 18.3942 8.65676 19.2822 8.13176C19.5272 8.59276 19.7322 9.07775 19.8872 9.58576ZM20.5002 14.4998C21.8812 14.4998 23.0002 13.3808 23.0002 11.9998C23.0002 10.6188 21.8812 9.49976 20.5002 9.49976C20.4612 9.49976 20.4242 9.50976 20.3852 9.51076C20.2102 8.92276 19.9782 8.35876 19.6902 7.82976C19.7192 7.80376 19.7512 7.78476 19.7782 7.75776C20.7552 6.78176 20.7552 5.19876 19.7782 4.22176C18.8022 3.24576 17.2192 3.24576 16.2422 4.22176C16.2152 4.24876 16.1962 4.28176 16.1702 4.30976C15.6402 4.02076 15.0772 3.79076 14.4892 3.61576C14.4912 3.57676 14.5002 3.53976 14.5002 3.49976C14.5002 2.11876 13.3812 0.999756 12.0002 0.999756C10.6192 0.999756 9.50021 2.11876 9.50021 3.49976C9.50021 3.53976 9.50921 3.57676 9.51121 3.61576C8.92321 3.79076 8.35921 4.02076 7.83021 4.30976C7.80321 4.28176 7.78521 4.24876 7.75821 4.22176C6.78121 3.24576 5.19821 3.24576 4.22121 4.22176C3.24521 5.19876 3.24521 6.78176 4.22121 7.75776C4.24921 7.78476 4.28121 7.80376 4.30921 7.82976C4.02121 8.35876 3.79021 8.92276 3.61521 9.51076C3.57621 9.50976 3.53921 9.49976 3.50021 9.49976C2.11921 9.49976 1.00021 10.6188 1.00021 11.9998C1.00021 13.3808 2.11921 14.4998 3.50021 14.4998C3.53921 14.4998 3.57621 14.4908 3.61521 14.4898C3.79021 15.0768 4.02121 15.6408 4.30921 16.1708C4.28121 16.1968 4.24921 16.2158 4.22121 16.2428C3.24521 17.2188 3.24521 18.8018 4.22121 19.7788C5.19821 20.7548 6.78121 20.7548 7.75821 19.7788C7.78521 19.7508 7.80321 19.7188 7.83021 19.6908C8.35921 19.9788 8.92321 20.2098 9.51121 20.3848C9.50921 20.4238 9.50021 20.4608 9.50021 20.4998C9.50021 21.8808 10.6192 22.9998 12.0002 22.9998C13.3812 22.9998 14.5002 21.8808 14.5002 20.4998C14.5002 20.4608 14.4912 20.4238 14.4892 20.3848C15.0772 20.2098 15.6402 19.9788 16.1702 19.6908C16.1962 19.7188 16.2152 19.7508 16.2422 19.7788C17.2192 20.7548 18.8022 20.7548 19.7782 19.7788C20.7552 18.8018 20.7552 17.2188 19.7782 16.2428C19.7512 16.2158 19.7192 16.1968 19.6902 16.1708C19.9782 15.6408 20.2102 15.0768 20.3852 14.4898C20.4242 14.4908 20.4612 14.4998 20.5002 14.4998Z" fill="#3997FF"/>
</g>
</svg>
<svg width="24" height="24" viewBox="0 0 24 24" fill="none" xmlns="http://www.w3.org/2000/svg">
<g id="systemicons/story/story_cluster_off">
<path id="story_cluster_off" fill-rule="evenodd" clip-rule="evenodd" d="M19.2559 15.8535C18.8699 15.6315 18.4429 15.5105 18.0109 15.5105C17.4499 15.5105 16.8959 15.7085 16.4379 16.0835L13.9279 13.5745C14.2299 13.2045 14.4239 12.7505 14.4749 12.2495H18.0259C18.1299 13.2935 18.8689 14.1425 19.8579 14.4065C19.7019 14.9115 19.5009 15.3945 19.2559 15.8535ZM19.0709 19.0715C18.7879 19.3545 18.4109 19.5105 18.0109 19.5105C17.6099 19.5105 17.2339 19.3545 16.9499 19.0715C16.3649 18.4865 16.3649 17.5345 16.9489 16.9495C17.2339 16.6665 17.6099 16.5105 18.0109 16.5105C18.4109 16.5105 18.7879 16.6665 19.0709 16.9495C19.6559 17.5345 19.6559 18.4865 19.0709 19.0715ZM14.4059 19.8575C14.1429 18.8695 13.2939 18.1305 12.2499 18.0255V14.4745C12.7509 14.4245 13.2049 14.2295 13.5739 13.9275L16.0839 16.4375C15.4209 17.2495 15.3429 18.3705 15.8539 19.2555C15.3949 19.5005 14.9119 19.7015 14.4059 19.8575ZM11.9999 21.9995C11.1729 21.9995 10.4999 21.3275 10.4999 20.4995C10.4999 19.6725 11.1729 18.9995 11.9999 18.9995C12.8269 18.9995 13.4999 19.6725 13.4999 20.4995C13.4999 21.3275 12.8269 21.9995 11.9999 21.9995ZM9.59391 19.8575C9.08791 19.7015 8.60591 19.5005 8.14691 19.2555C8.65691 18.3705 8.57891 17.2495 7.91591 16.4375L10.4259 13.9275C10.7949 14.2295 11.2489 14.4245 11.7499 14.4745V18.0255C10.7059 18.1305 9.85791 18.8695 9.59391 19.8575ZM5.98891 19.5105C5.58891 19.5105 5.21191 19.3545 4.92891 19.0715C4.34391 18.4865 4.34391 17.5345 4.92891 16.9495C5.21191 16.6665 5.58891 16.5105 5.98891 16.5105C6.39091 16.5105 6.76691 16.6665 7.04991 16.9495C7.63491 17.5345 7.63491 18.4865 7.05091 19.0715C6.76691 19.3545 6.39091 19.5105 5.98891 19.5105ZM4.14291 14.4065C5.13091 14.1425 5.86991 13.2935 5.97491 12.2495H9.52591C9.57591 12.7505 9.77091 13.2045 10.0719 13.5745L7.56291 16.0835C7.10491 15.7085 6.54991 15.5105 5.98891 15.5105C5.55791 15.5105 5.12991 15.6315 4.74391 15.8535C4.49891 15.3945 4.29791 14.9115 4.14291 14.4065ZM1.99991 11.9995C1.99991 11.1725 2.67291 10.4995 3.49991 10.4995C4.32691 10.4995 4.99991 11.1725 4.99991 11.9995C4.99991 12.8275 4.32691 13.4995 3.49991 13.4995C2.67291 13.4995 1.99991 12.8275 1.99991 11.9995ZM4.74391 8.14551C5.12991 8.36851 5.55791 8.48951 5.98891 8.48951C6.54991 8.48951 7.10491 8.29151 7.56291 7.91651L10.0719 10.4255C9.77091 10.7955 9.57591 11.2495 9.52591 11.7495H5.97491C5.86891 10.7055 5.12991 9.85651 4.14091 9.59351C4.30191 9.09051 4.49891 8.60551 4.74391 8.14551ZM4.92891 4.92851C5.21191 4.64551 5.58891 4.48951 5.98891 4.48951C6.39091 4.48951 6.76691 4.64551 7.04991 4.92851C7.63491 5.51351 7.63491 6.46551 7.05091 7.05051C6.76691 7.33351 6.39091 7.48951 5.98891 7.48951C5.58891 7.48951 5.21191 7.33351 4.92891 7.05051C4.34391 6.46551 4.34391 5.51351 4.92891 4.92851ZM8.14691 4.74451C8.60591 4.49951 9.09091 4.30151 9.59391 4.14051C9.85691 5.12951 10.7059 5.86951 11.7499 5.97451V9.52551C11.2489 9.57551 10.7949 9.77051 10.4259 10.0725L7.91591 7.56251C8.57891 6.75051 8.65691 5.62951 8.14691 4.74451ZM11.9999 1.99951C12.8269 1.99951 13.4999 2.67251 13.4999 3.49951C13.4999 4.32751 12.8269 4.99951 11.9999 4.99951C11.1729 4.99951 10.4999 4.32751 10.4999 3.49951C10.4999 2.67251 11.1729 1.99951 11.9999 1.99951ZM14.4059 4.14251C14.9119 4.29851 15.3949 4.49951 15.8539 4.74451C15.3429 5.62951 15.4209 6.75051 16.0839 7.56251L13.5739 10.0725C13.2049 9.77051 12.7509 9.57551 12.2499 9.52551V5.97451C13.2939 5.86951 14.1429 5.13051 14.4059 4.14251ZM18.0109 4.48951C18.4109 4.48951 18.7879 4.64551 19.0709 4.92851C19.6559 5.51351 19.6559 6.46551 19.0709 7.05051C18.7879 7.33351 18.4109 7.48951 18.0109 7.48951C17.6099 7.48951 17.2339 7.33351 16.9499 7.05051C16.3649 6.46551 16.3649 5.51351 16.9489 4.92851C17.2339 4.64551 17.6099 4.48951 18.0109 4.48951ZM11.9999 13.4995C11.1729 13.4995 10.4999 12.8275 10.4999 11.9995C10.4999 11.1725 11.1729 10.4995 11.9999 10.4995C12.8269 10.4995 13.4999 11.1725 13.4999 11.9995C13.4999 12.8275 12.8269 13.4995 11.9999 13.4995ZM19.8579 9.59351C18.8689 9.85751 18.1299 10.7065 18.0259 11.7495H14.4749C14.4239 11.2495 14.2299 10.7955 13.9279 10.4255L16.4379 7.91651C16.8959 8.29151 17.4499 8.48951 18.0109 8.48951C18.4429 8.48951 18.8699 8.36851 19.2559 8.14551C19.5009 8.60551 19.7019 9.08851 19.8579 9.59351ZM21.9999 11.9995C21.9999 12.8275 21.3269 13.4995 20.4999 13.4995C19.6729 13.4995 18.9999 12.8275 18.9999 11.9995C18.9999 11.1725 19.6729 10.4995 20.4999 10.4995C21.3269 10.4995 21.9999 11.1725 21.9999 11.9995ZM20.4999 14.4995C21.8809 14.4995 22.9999 13.3805 22.9999 11.9995C22.9999 10.6195 21.8809 9.49951 20.4999 9.49951C20.4489 9.49951 20.4019 9.51151 20.3539 9.51451C20.1789 8.93151 19.9479 8.37651 19.6619 7.85251C19.6999 7.81851 19.7419 7.79351 19.7779 7.75751C20.7549 6.78151 20.7549 5.19851 19.7779 4.22151C19.2899 3.73351 18.6509 3.48951 18.0109 3.48951C17.3709 3.48951 16.7309 3.73351 16.2419 4.22151C16.2069 4.25751 16.1819 4.29951 16.1489 4.33751C15.6229 4.05151 15.0689 3.82051 14.4849 3.64651C14.4879 3.59751 14.4999 3.55051 14.4999 3.49951C14.4999 2.11951 13.3809 0.999512 11.9999 0.999512C10.6189 0.999512 9.49991 2.11951 9.49991 3.49951C9.49991 3.54951 9.51191 3.59551 9.51491 3.64451C8.93591 3.82551 8.37691 4.05151 7.85191 4.33751C7.81791 4.29951 7.79291 4.25751 7.75791 4.22151C7.26991 3.73351 6.62891 3.48951 5.98891 3.48951C5.34991 3.48951 4.70991 3.73351 4.22191 4.22151C3.24491 5.19851 3.24491 6.78151 4.22191 7.75751C4.25791 7.79351 4.29991 7.81851 4.33791 7.85251C4.05191 8.37651 3.82491 8.93551 3.64491 9.51451C3.59591 9.51151 3.54991 9.49951 3.49991 9.49951C2.11891 9.49951 0.999908 10.6195 0.999908 11.9995C0.999908 13.3805 2.11891 14.4995 3.49991 14.4995C3.55091 14.4995 3.59791 14.4885 3.64691 14.4855C3.82091 15.0685 4.05191 15.6235 4.33791 16.1475C4.29991 16.1815 4.25791 16.2065 4.22191 16.2425C3.24491 17.2185 3.24491 18.8015 4.22191 19.7785C4.70991 20.2665 5.34991 20.5105 5.98891 20.5105C6.62891 20.5105 7.26991 20.2665 7.75791 19.7785C7.79291 19.7425 7.81791 19.7005 7.85191 19.6625C8.37691 19.9485 8.93191 20.1795 9.51491 20.3535C9.51191 20.4025 9.49991 20.4495 9.49991 20.4995C9.49991 21.8805 10.6189 22.9995 11.9999 22.9995C13.3809 22.9995 14.4999 21.8805 14.4999 20.4995C14.4999 20.4495 14.4879 20.4025 14.4849 20.3535C15.0689 20.1795 15.6229 19.9485 16.1489 19.6625C16.1819 19.7005 16.2069 19.7425 16.2419 19.7785C16.7309 20.2665 17.3709 20.5105 18.0109 20.5105C18.6509 20.5105 19.2899 20.2665 19.7779 19.7785C20.7549 18.8015 20.7549 17.2185 19.7779 16.2425C19.7419 16.2065 19.6999 16.1815 19.6619 16.1475C19.9479 15.6235 20.1789 15.0685 20.3539 14.4855C20.4019 14.4885 20.4489 14.4995 20.4999 14.4995Z" fill="white" fill-opacity="0.54"/>
</g>


</svg>

</svg>

<svg width="24" height="24" viewBox="0 0 24 24" fill="none" xmlns="http://www.w3.org/2000/svg">
<g id="systemicons/story/evergreen_off">
<path id="evergreen_off" d="M8.80533 14.2929C8.17777 14.9195 7.40321 15.2379 6.50872 15.2379C5.63908 15.2379 4.83047 14.9103 4.21211 14.2929C3.58456 13.6664 3.26562 12.893 3.26562 11.9999C3.26562 11.1317 3.59376 10.3244 4.21211 9.70698C4.83047 9.0896 5.63908 8.76199 6.50872 8.76199C7.37835 8.76199 8.18697 9.0896 8.80533 9.70698L14.2966 15.1896C14.7094 15.6017 15.2335 15.9536 15.7776 16.1919C16.4088 16.4283 16.9513 16.5449 17.4913 16.5449C18.0987 16.5449 18.6448 16.4359 19.1812 16.2016C19.8125 15.9258 20.2988 15.6077 20.6859 15.1896C21.0987 14.7774 21.4511 14.2541 21.6899 13.7109C21.9266 13.0807 22.0435 12.5391 22.0435 11.9999C22.0435 11.3935 21.9342 10.8483 21.6996 10.3127C21.4233 9.68234 21.1048 9.19689 20.6859 8.81035C20.2732 8.39824 19.749 8.04634 19.205 7.80795C18.5738 7.57162 18.0312 7.45496 17.4913 7.45496C16.8839 7.45496 16.3378 7.564 15.8013 7.79832C15.17 8.0741 14.6838 8.39215 14.2801 8.82602L14.2289 8.87256L15.1104 9.75273L15.1947 9.66864C15.8222 9.04208 16.5968 8.72365 17.4913 8.72365C18.3609 8.72365 19.1695 9.05127 19.7879 9.66864C20.4154 10.2952 20.7344 11.0685 20.7344 11.9616C20.7344 12.8299 20.4062 13.6372 19.7879 14.2546C19.1603 14.8811 18.3858 15.1996 17.4913 15.1996C16.6216 15.1996 15.813 14.872 15.1947 14.2546L14.3896 13.4508L9.70338 8.81035C9.29062 8.39824 8.76646 8.04634 8.22241 7.80795C7.59121 7.57162 7.04868 7.45496 6.50872 7.45496C5.90132 7.45496 5.35521 7.564 4.81879 7.79832C4.18743 8.0741 3.70121 8.39215 3.31405 8.81035C2.90129 9.22245 2.54884 9.74579 2.31007 10.289C2.07336 10.9192 1.95651 11.4608 1.95651 11.9999C1.95651 12.6064 2.06573 13.1516 2.30042 13.6872C2.57664 14.3176 2.8952 14.803 3.31405 15.1896C3.72681 15.6017 4.25098 15.9536 4.79502 16.1919C5.42623 16.4283 5.96875 16.5449 6.50872 16.5449C7.11612 16.5449 7.66222 16.4359 8.19865 16.2016C8.83 15.9258 9.31623 15.6077 9.70338 15.1896L9.71081 15.1821L8.81275 14.2855L8.80533 14.2929Z" fill="white" fill-opacity="0.54"/>
</g>
</svg>

<svg width="24" height="24" viewBox="0 0 24 24" fill="none" xmlns="http://www.w3.org/2000/svg">
<g id="systemicons/story/evergreen_on">
<path id="evergreen_on" d="M6.50873 9.71705C5.89034 9.71705 5.32567 9.94583 4.88848 10.3823C4.45129 10.8188 4.22215 11.3826 4.22215 12C4.22215 12.6405 4.44082 13.1707 4.88848 13.6177C5.32567 14.0542 5.89034 14.283 6.50873 14.283C7.15025 14.283 7.68131 14.0646 8.12897 13.6177L8.81276 12.935L11.0635 15.1822L10.393 15.8511C9.91952 16.3633 9.32551 16.7518 8.58205 17.0766C7.92199 17.3649 7.24535 17.5 6.50873 17.5C5.84182 17.5 5.19003 17.3598 4.43541 17.0766C3.76031 16.7817 3.13644 16.3629 2.65149 15.8781C2.13855 15.4054 1.74937 14.8123 1.4241 14.07C1.13533 13.411 1 12.7355 1 12C1 11.3341 1.14039 10.6834 1.4241 9.92996C1.71946 9.25594 2.13895 8.63306 2.62445 8.14887C3.09793 7.63675 3.69195 7.24818 4.43541 6.92343C5.09546 6.63512 5.77211 6.5 6.50873 6.5C7.17563 6.5 7.82743 6.64016 8.58205 6.92343C9.25715 7.21832 9.88101 7.63715 10.3784 8.13372L15.0646 12.7742L15.871 13.5793C16.3082 14.0158 16.8729 14.2446 17.4913 14.2446C18.1328 14.2446 18.6639 14.0263 19.1115 13.5793C19.5487 13.1428 19.7778 12.5791 19.7778 11.9617C19.7778 11.3212 19.5592 10.7909 19.1115 10.344C18.6743 9.90749 18.1097 9.67871 17.4913 9.67871C16.8497 9.67871 16.3187 9.89703 15.871 10.344L15.1104 11.1034L12.8432 8.83969L13.2143 8.50282L13.607 8.14887C14.0805 7.63675 14.6745 7.24818 15.418 6.92343C16.078 6.63512 16.7547 6.5 17.4913 6.5C18.1582 6.5 18.81 6.64016 19.5646 6.92343C20.2397 7.21832 20.8636 7.63715 21.3485 8.12188C21.8615 8.59461 22.2506 9.18769 22.5759 9.92996C22.8647 10.589 23 11.2645 23 12C23 12.6659 22.8596 13.3166 22.5759 14.07C22.2805 14.7441 21.861 15.3669 21.3755 15.8511C20.9021 16.3633 20.3081 16.7518 19.5646 17.0766C18.9045 17.3649 18.2279 17.5 17.4913 17.5C16.8244 17.5 16.1726 17.3598 15.418 17.0766C14.7429 16.7817 14.119 16.3629 13.6202 15.8649L8.12897 10.3823C7.69178 9.94583 7.12711 9.71705 6.50873 9.71705Z" fill="#3997FF"/>
</g>
</svg>
<svg width="24" height="24" viewBox="0 0 24 24" fill="none" xmlns="http://www.w3.org/2000/svg">
<g id="systemicons/story/bookmarks_on">
<path id="bookmarks_on" fill-rule="evenodd" clip-rule="evenodd" d="M7.19928 14.0992L5.03328 21.3302C4.89828 21.7803 5.40528 22.1483 5.79228 21.8813L12.0003 17.5872L18.2083 21.8813C18.5953 22.1483 19.1013 21.7803 18.9673 21.3302L16.8013 14.0992L22.8033 9.52225C23.1773 9.23725 22.9833 8.64025 22.5133 8.63025L14.9673 8.45525L12.4693 1.33225C12.3133 0.88925 11.6863 0.88925 11.5313 1.33225L9.03328 8.45525L1.48628 8.63025C1.01628 8.64025 0.823277 9.23725 1.19628 9.52225L7.19928 14.0992Z" fill="#3997FF"/>
</g>
</svg>
<svg width="24" height="24" viewBox="0 0 24 24" fill="none" xmlns="http://www.w3.org/2000/svg">
<g id="systemicons/story/bookmarks_off">
<path id="bookmarks_off" fill-rule="evenodd" clip-rule="evenodd" d="M6.40285 20.243L12.0003 16.3713L17.5977 20.243L15.6448 13.7235L21.0565 9.59673L14.2525 9.43894L12.0003 3.01665L9.74801 9.43895L2.94326 9.59673L8.35573 13.7235L6.40285 20.243ZM7.19928 14.0992L1.19628 9.52225C0.823277 9.23725 1.01628 8.64025 1.48628 8.63025L9.03328 8.45525L11.5313 1.33225C11.6863 0.88925 12.3133 0.88925 12.4693 1.33225L14.9673 8.45525L22.5133 8.63025C22.9833 8.64025 23.1773 9.23725 22.8033 9.52225L16.8013 14.0992L18.9673 21.3302C19.1013 21.7803 18.5953 22.1483 18.2083 21.8813L12.0003 17.5872L5.79228 21.8813C5.40528 22.1483 4.89828 21.7803 5.03328 21.3302L7.19928 14.0992Z" fill="white" fill-opacity="0.54"/>
</g>
</svg>
<svg width="24" height="24" viewBox="0 0 24 24" fill="none" xmlns="http://www.w3.org/2000/svg">
<g id="systemicons/story/stories_off">
<path id="stories_off" fill-rule="evenodd" clip-rule="evenodd" d="M20 22H8V6H17L20 9V22ZM17.5 5H8C7.447 5 7 5.448 7 6V22C7 22.552 7.447 23 8 23H20C20.553 23 21 22.552 21 22V8.5L17.5 5ZM4 19C3.447 19 3 18.552 3 18V2C3 1.448 3.447 1 4 1H14L15 2H4V19ZM6 21C5.447 21 5 20.552 5 20V4C5 3.448 5.447 3 6 3H16L17 4H6V21Z" fill="white" fill-opacity="0.54"/>
</g>
</svg>
<svg width="24" height="24" viewBox="0 0 24 24" fill="none" xmlns="http://www.w3.org/2000/svg">
<g id="systemicons/story/stories_on">
<path id="stories_on" fill-rule="evenodd" clip-rule="evenodd" d="M17.5 5H8C7.447 5 7 5.448 7 6V22C7 22.552 7.447 23 8 23H20C20.553 23 21 22.552 21 22V8.5L17.5 5ZM4 19C3.447 19 3 18.552 3 18V2C3 1.448 3.447 1 4 1H14L15 2H4V19ZM6 21C5.447 21 5 20.552 5 20V4C5 3.448 5.447 3 6 3H16L17 4H6V21Z" fill="#3997FF"/>
</g>
</svg>
<svg width="24" height="24" viewBox="0 0 24 24" fill="none" xmlns="http://www.w3.org/2000/svg">
<g id="systemicons/story/pitches_on">
<path id="pitches_on" fill-rule="evenodd" clip-rule="evenodd" d="M13.634 21.128L10.369 20.788V21.368C10.369 22.269 11.101 23 12.002 23C12.904 23 13.634 22.269 13.634 21.368V21.128ZM14.801 19.436V18.917L9.203 18.333V18.974C9.203 19.273 9.429 19.523 9.726 19.554L14.156 20.016C14.501 20.052 14.801 19.782 14.801 19.436ZM5 8.016C5 10.314 6.081 12.32 7.779 13.6C8.559 14.191 9.203 14.951 9.203 16.001V17.167L14.8 17.75V16.001C14.8 14.951 15.443 14.191 16.222 13.6C17.92 12.32 19 10.314 19 8.016C19 4.142 15.866 1 12 1C8.134 1 5 4.142 5 8.016Z" fill="#3997FF"/>
</g>
</svg>
<svg width="24" height="24" viewBox="0 0 24 24" fill="none" xmlns="http://www.w3.org/2000/svg">
<g id="systemicons/story/pitches_off">
<path id="pitches_off" fill-rule="evenodd" clip-rule="evenodd" d="M13.634 21.128L10.369 20.788V21.368C10.369 22.269 11.101 23 12.002 23C12.904 23 13.634 22.269 13.634 21.368V21.128ZM14.801 19.436V18.917L9.203 18.333V18.974C9.203 19.273 9.429 19.523 9.726 19.554L14.156 20.016C14.501 20.052 14.801 19.782 14.801 19.436ZM12 1C8.134 1 5 4.142 5 8.016C5 10.314 6.081 12.32 7.779 13.6C8.559 14.191 9.203 14.951 9.203 16.001V17.167L14.8 17.75V16.001C14.8 14.951 15.443 14.191 16.222 13.6C17.92 12.32 19 10.314 19 8.016C19 4.142 15.866 1 12 1ZM12 2C15.309 2 18 4.699 18 8.016C18 9.918 17.133 11.662 15.617 12.803C14.411 13.718 13.8 14.794 13.8 16.001V16.64L10.203 16.265V16.001C10.203 14.794 9.59 13.717 8.381 12.802C6.867 11.661 6 9.917 6 8.016C6 4.699 8.692 2 12 2Z" fill="white" fill-opacity="0.54"/>
</g>
</svg>


</svg>
